<svg width="80" height="32" viewBox="0 0 80 32" fill="none" xmlns="http://www.w3.org/2000/svg">
<path d="M33.1678 9.51997L27.5198 22.992H23.8398L21.0558 12.232C20.8958 11.576 20.7358 11.32 20.2318 11.056C19.1384 10.5368 17.986 10.1527 16.7998 9.91197L16.8798 9.51997H22.8078C23.5678 9.51997 24.2478 10.024 24.4078 10.88L25.8718 18.68L29.5198 9.51997H33.1758H33.1678ZM38.1518 9.51997L35.2718 22.992H31.7838L34.6638 9.51997H38.1518V9.51997ZM47.5918 18.584C47.6078 15.024 42.6798 14.824 42.7118 13.24C42.7278 12.76 43.1838 12.248 44.1918 12.12C45.3717 12.0027 46.5613 12.2101 47.6318 12.72L48.2318 9.85597C47.3918 9.55197 46.3118 9.27197 44.9838 9.27197C41.5358 9.27197 39.1278 11.112 39.0878 13.712C39.0718 15.648 40.8238 16.728 42.1358 17.392C43.4958 18.04 43.9598 18.464 43.9358 19.048C43.9198 19.96 42.8638 20.344 41.8558 20.368C40.0958 20.4 39.0878 19.888 38.2798 19.504L37.6398 22.456C38.4478 22.824 39.9598 23.144 41.5118 23.16C45.1918 23.192 47.5758 21.376 47.5918 18.576V18.584ZM56.6878 22.976H59.9038L57.0878 9.50397H54.1278C53.4558 9.50397 52.8958 9.89597 52.6478 10.496L47.4238 22.976H51.0798L51.7998 20.976H56.2638L56.6878 22.976ZM52.7918 18.208L54.6318 13.16L55.6878 18.208H52.7998H52.7918Z" fill="#1A1F71"/>
</svg>
