<svg width="80" height="32" viewBox="0 0 80 32" fill="none" xmlns="http://www.w3.org/2000/svg">
<path d="M29.3679 28.6242V26.8802C29.3679 26.2082 28.9679 25.7762 28.2639 25.7762C27.9119 25.7762 27.5439 25.8882 27.2719 26.2642C27.0719 25.9442 26.7839 25.7762 26.3439 25.7762C26.0559 25.7762 25.7599 25.8562 25.5279 26.1762V25.8322H24.9199V28.6322H25.5599V27.0802C25.5599 26.5842 25.8159 26.3602 26.2239 26.3602C26.6319 26.3602 26.8399 26.6162 26.8399 27.0802V28.6242H27.4479V27.0802C27.4479 26.5842 27.7439 26.3602 28.1199 26.3602C28.5199 26.3602 28.7279 26.6162 28.7279 27.0802V28.6242H29.3679ZM38.4239 25.8242H37.4319V24.9842H36.8239V25.8322H36.2639V26.3842H36.8239V27.6642C36.8239 28.3042 37.0799 28.6802 37.7839 28.6802C38.0479 28.6802 38.3359 28.6002 38.5359 28.4802L38.3679 27.9522C38.2105 28.0532 38.027 28.1061 37.8399 28.1042C37.5519 28.1042 37.4399 27.9282 37.4399 27.6322V26.3842H38.4239V25.8242V25.8242ZM43.5759 25.7762C43.2239 25.7762 42.9919 25.9442 42.8479 26.1762V25.8322H42.2319V28.6322H42.8479V27.0562C42.8479 26.5842 43.0479 26.3282 43.4319 26.3282C43.5439 26.3282 43.6879 26.3522 43.8079 26.3842L43.9839 25.8002L43.5759 25.7762V25.7762ZM35.7759 26.0642C35.4345 25.8569 35.0389 25.7566 34.6399 25.7762C33.9439 25.7762 33.4719 26.1202 33.4719 26.6722C33.4719 27.1442 33.8239 27.4002 34.4319 27.4882L34.7279 27.5202C35.0479 27.5762 35.2239 27.6642 35.2239 27.8082C35.2239 28.0162 34.9839 28.1602 34.5839 28.1602C34.2495 28.1644 33.9222 28.0637 33.6479 27.8722L33.3599 28.3362C33.6799 28.5682 34.1119 28.6802 34.5519 28.6802C35.3679 28.6802 35.8319 28.3042 35.8319 27.7842C35.8319 27.2882 35.4559 27.0242 34.8719 26.9362L34.5839 26.9042C34.3199 26.8802 34.1119 26.8242 34.1119 26.6482C34.1119 26.4402 34.3199 26.3282 34.6399 26.3282C34.9919 26.3282 35.3359 26.4722 35.5119 26.5602L35.7759 26.0642V26.0642ZM51.9839 25.7762C51.6399 25.7762 51.4079 25.9442 51.2639 26.1762V25.8322H50.6479V28.6322H51.2559V27.0562C51.2559 26.5842 51.4639 26.3282 51.8399 26.3282C51.9599 26.3282 52.1039 26.3522 52.2159 26.3842L52.3919 25.8002L51.9919 25.7762H51.9839ZM44.1839 27.2322C44.1839 28.0722 44.7679 28.6802 45.6719 28.6802C46.0719 28.6802 46.3679 28.6002 46.6639 28.3602L46.3679 27.8722C46.1359 28.0402 45.9039 28.1282 45.6479 28.1282C45.1439 28.1282 44.7999 27.7842 44.7999 27.2322C44.7999 26.7042 45.1439 26.3522 45.6399 26.3282C45.9039 26.3282 46.1359 26.4082 46.3679 26.5842L46.6639 26.0962C46.3679 25.8562 46.0799 25.7762 45.6719 25.7762C44.7679 25.7762 44.1839 26.3842 44.1839 27.2322V27.2322ZM49.8639 27.2322V25.8322H49.2479V26.1842C49.0479 25.9202 48.7519 25.7762 48.3759 25.7762C47.5919 25.7762 46.9839 26.3842 46.9839 27.2322C46.9839 28.0722 47.5919 28.6802 48.3759 28.6802C48.7839 28.6802 49.0799 28.5362 49.2559 28.2802V28.6242H49.8639V27.2322V27.2322ZM47.5919 27.2322C47.5919 26.7362 47.9119 26.3282 48.4319 26.3282C48.9279 26.3282 49.2799 26.7042 49.2799 27.2322C49.2799 27.7202 48.9279 28.1282 48.4319 28.1282C47.9119 28.1282 47.5919 27.7282 47.5919 27.2322ZM40.2879 25.7762C39.4719 25.7762 38.8879 26.3522 38.8879 27.2322C38.8879 28.1042 39.4719 28.6802 40.3119 28.6802C40.7199 28.6802 41.1279 28.5682 41.4479 28.3042L41.1599 27.8722C40.9199 28.0402 40.6319 28.1602 40.3439 28.1602C39.9679 28.1602 39.5839 27.9842 39.4959 27.4882H41.5679V27.2562C41.6239 26.3522 41.0719 25.7762 40.2879 25.7762ZM40.2879 26.3282C40.6639 26.3282 40.9279 26.5602 40.9839 26.9922H39.5279C39.6159 26.5922 39.8479 26.3282 40.2879 26.3282ZM55.4799 27.2322V24.7202H54.8719V26.1762C54.6639 25.9122 54.3759 25.7682 53.9919 25.7682C53.2079 25.7682 52.5999 26.3762 52.5999 27.2242C52.5999 28.0642 53.2079 28.6722 53.9919 28.6722C54.3999 28.6722 54.6959 28.5282 54.8719 28.2722V28.6162H55.4799V27.2242V27.2322ZM53.2079 27.2322C53.2079 26.7362 53.5279 26.3282 54.0559 26.3282C54.5519 26.3282 54.8959 26.7042 54.8959 27.2322C54.8959 27.7202 54.5519 28.1282 54.0559 28.1282C53.5279 28.1282 53.2079 27.7282 53.2079 27.2322ZM32.7759 27.2322V25.8322H32.1679V26.1842C31.9599 25.9202 31.6719 25.7762 31.2879 25.7762C30.5039 25.7762 29.8959 26.3842 29.8959 27.2322C29.8959 28.0722 30.5039 28.6802 31.2879 28.6802C31.6959 28.6802 31.9919 28.5362 32.1679 28.2802V28.6242H32.7759V27.2322ZM30.5359 27.2322C30.5359 26.7362 30.8559 26.3282 31.3759 26.3282C31.8719 26.3282 32.2239 26.7042 32.2239 27.2322C32.2239 27.7202 31.8719 28.1282 31.3759 28.1282C30.8559 28.1282 30.5359 27.7282 30.5359 27.2322ZM56.4719 28.2162C56.4959 28.2162 56.5519 28.2162 56.5839 28.2482C56.6159 28.2482 56.6399 28.2722 56.6719 28.3042C56.7039 28.3362 56.7279 28.3602 56.7279 28.3922C56.7279 28.4242 56.7599 28.4482 56.7599 28.5122C56.7599 28.5362 56.7599 28.5922 56.7279 28.6242C56.7039 28.6562 56.7039 28.6802 56.6719 28.7122C56.6399 28.7442 56.6159 28.7682 56.5919 28.7682C56.5599 28.8002 56.5279 28.8002 56.4719 28.8002C56.4399 28.8002 56.3839 28.8002 56.3519 28.7682C56.3199 28.7442 56.2959 28.7442 56.2719 28.7122C56.2399 28.6802 56.2079 28.6562 56.2079 28.6322C56.1759 28.6002 56.1759 28.5682 56.1759 28.5122C56.1759 28.4802 56.1759 28.4242 56.2079 28.3922L56.2639 28.3122C56.2959 28.2722 56.3199 28.2482 56.3519 28.2482C56.4079 28.2162 56.4399 28.2162 56.4719 28.2162ZM56.4719 28.7122C56.4959 28.7122 56.5279 28.7122 56.5519 28.6802C56.5839 28.6802 56.6159 28.6562 56.6159 28.6242L56.6719 28.5682C56.6719 28.5362 56.7039 28.5122 56.7039 28.4802C56.7039 28.4482 56.7039 28.4242 56.6719 28.4002C56.672 28.3845 56.6664 28.3694 56.6561 28.3576C56.6458 28.3458 56.6315 28.3382 56.6159 28.3362L56.5599 28.2722C56.5279 28.2482 56.4959 28.2482 56.4719 28.2482C56.4399 28.2482 56.4079 28.2482 56.3839 28.2722C56.3669 28.2722 56.3507 28.279 56.3387 28.291C56.3267 28.303 56.3199 28.3192 56.3199 28.3362L56.2639 28.3922C56.2639 28.4242 56.2399 28.4482 56.2399 28.4802C56.2399 28.5122 56.2399 28.5362 56.2639 28.5602C56.2639 28.6002 56.2959 28.6242 56.3199 28.6242L56.3839 28.6802C56.4079 28.7122 56.4399 28.7122 56.4639 28.7122H56.4719ZM56.4959 28.3602C56.5279 28.3602 56.5599 28.3602 56.5839 28.3922C56.6159 28.4242 56.6159 28.4242 56.6159 28.4482C56.6159 28.4802 56.6159 28.4802 56.5839 28.5122C56.5839 28.5122 56.5599 28.5362 56.5279 28.5362L56.6079 28.6242H56.5599L56.4719 28.5442H56.4399V28.6242H56.3839V28.3602H56.4959ZM56.4399 28.4242V28.4802H56.5279V28.4242H56.4399Z" fill="black"/>
<path d="M44.7364 4.64014H35.5684V21.1201H44.7364V4.64014Z" fill="#F26522"/>
<path d="M36.1596 12.8802C36.1596 9.52821 37.7276 6.56021 40.1436 4.64021C38.5982 3.42817 36.7431 2.67514 34.7902 2.46712C32.8372 2.25909 30.8652 2.60445 29.0991 3.46376C27.3331 4.32306 25.8443 5.66168 24.8028 7.32675C23.7613 8.99182 23.209 10.9162 23.209 12.8802C23.209 14.8442 23.7613 16.7686 24.8028 18.4337C25.8443 20.0987 27.3331 21.4374 29.0991 22.2967C30.8652 23.156 32.8372 23.5013 34.7902 23.2933C36.7431 23.0853 38.5982 22.3322 40.1436 21.1202C38.8994 20.1371 37.8939 18.8851 37.2025 17.4581C36.5112 16.031 36.1519 14.4659 36.1516 12.8802H36.1596Z" fill="#E51B24"/>
<path d="M56.1201 19.368V19.024H56.2641V18.96H55.9121V19.024H56.0641V19.368H56.1201ZM56.7921 19.368V18.968H56.6721L56.5601 19.256L56.4401 18.96H56.3201V19.368H56.4081V19.048L56.5281 19.312H56.6081L56.7281 19.048V19.368H56.8001H56.7921Z" fill="#231F20"/>
<path d="M57.1122 12.8802C57.1147 14.8472 56.5632 16.7752 55.5208 18.4433C54.4784 20.1114 52.9873 21.4522 51.2182 22.3122C49.4491 23.1721 47.4736 23.5164 45.5179 23.3056C43.5622 23.0947 41.7054 22.3374 40.1602 21.1202C41.4039 20.1369 42.409 18.8848 43.0999 17.4577C43.7909 16.0307 44.1498 14.4657 44.1498 12.8802C44.1498 11.2947 43.7909 9.72971 43.0999 8.30266C42.409 6.87561 41.4039 5.62349 40.1602 4.64019C41.7053 3.42063 43.5628 2.66125 45.5198 2.44916C47.4768 2.23706 49.4539 2.58083 51.2245 3.44104C52.995 4.30125 54.4872 5.64307 55.53 7.31259C56.5728 8.98212 57.1239 10.9118 57.1202 12.8802H57.1122Z" fill="#F99F1C"/>
</svg>
