<svg width="46" height="46" viewBox="0 0 46 46" fill="none" xmlns="http://www.w3.org/2000/svg">
<path d="M0 46H46V0H0V46Z" fill="#E50695"/>
<path d="M12.0611 7.85359C13.145 7.85359 14.0245 6.97394 14.0245 5.89017C14.0245 4.80641 13.145 3.92676 12.0611 3.92676C10.9771 3.92676 10.0977 4.80641 10.0977 5.89017C10.0977 6.97394 10.9771 7.85359 12.0611 7.85359Z" fill="white"/>
<path d="M34.5 7.85359C35.584 7.85359 36.4635 6.9741 36.4635 5.89017C36.4635 4.80624 35.584 3.92676 34.5 3.92676C33.4161 3.92676 32.5366 4.80624 32.5366 5.89017C32.5366 6.9741 33.4161 7.85359 34.5 7.85359Z" fill="white"/>
<path fill-rule="evenodd" clip-rule="evenodd" d="M23.2807 17.9513C16.6197 17.9513 11.2197 12.4258 11.2197 5.60986H12.5096C12.5096 11.6968 17.3321 16.6315 23.2807 16.6315C29.2293 16.6315 34.0518 11.6968 34.0518 5.60986H35.3417C35.3417 12.4258 29.9417 17.9513 23.2807 17.9513Z" fill="white"/>
<path d="M10.8182 31.3748C10.7027 31.6572 10.5256 31.9044 10.2858 32.1153C10.0471 32.3262 9.77462 32.4802 9.46693 32.5796C9.1605 32.6777 8.82268 32.7274 8.45471 32.7274H7.19634V35.4922H5.04883V34.4158H5.96937V29.233H5.04883V28.1567H8.35299C8.74105 28.1567 9.09771 28.204 9.42172 28.2997C9.74573 28.3955 10.0308 28.5482 10.2757 28.7591C10.5206 28.97 10.7014 29.2148 10.8182 29.4948C10.9338 29.7748 10.9915 30.0924 10.9915 30.4475C10.9915 30.7833 10.9338 31.0923 10.8182 31.376M9.67289 29.89C9.61136 29.7348 9.53349 29.6148 9.43805 29.53C9.33632 29.4379 9.18939 29.3651 8.9985 29.313C8.80761 29.2609 8.55895 29.2342 8.25126 29.2342H7.1976V31.6523H8.25126C8.53132 31.6523 8.76365 31.6257 8.95203 31.5735C9.13915 31.5214 9.29488 31.4487 9.41795 31.3566C9.52721 31.2705 9.61261 31.1602 9.67415 31.0257C9.73569 30.8911 9.76583 30.7178 9.76583 30.5069C9.76583 30.25 9.73569 30.0451 9.67415 29.89M14.2153 35.4922V35.137C14.0043 35.2619 13.777 35.3637 13.5347 35.4425C13.2923 35.5213 13.0449 35.5613 12.7937 35.5613C12.2687 35.5613 11.8317 35.394 11.4838 35.0582C11.136 34.7358 10.9627 34.3371 10.9627 33.8631C10.9627 33.3492 11.1674 32.925 11.5768 32.5893C11.7739 32.4183 12.0013 32.2947 12.2574 32.2196C12.5136 32.1444 12.795 32.1056 13.1014 32.1056C13.34 32.1056 13.5924 32.1384 13.8587 32.2038C13.9127 32.2171 13.9717 32.2317 14.032 32.2487C14.0935 32.2656 14.155 32.2862 14.2166 32.3129V31.7008C14.2166 31.5687 14.1977 31.4669 14.1601 31.3954C14.1224 31.3226 14.0734 31.2669 14.0119 31.2281C13.9302 31.176 13.8273 31.1348 13.7055 31.1045C13.5824 31.0754 13.4329 31.0596 13.2559 31.0596C13.1667 31.0596 13.065 31.0705 12.9494 31.0948C12.8339 31.1178 12.7158 31.1469 12.5965 31.1832C12.4772 31.2196 12.3642 31.256 12.2587 31.2923C12.1532 31.3287 12.0628 31.3602 11.9874 31.3857L11.6195 30.5069C11.8581 30.4148 12.0628 30.3409 12.2336 30.2851C12.4044 30.2293 12.584 30.1784 12.7761 30.1324C12.967 30.0863 13.134 30.0633 13.2772 30.0633C13.5912 30.0633 13.875 30.0948 14.1312 30.1566C14.3874 30.2196 14.6134 30.3166 14.8119 30.4475C15.0166 30.599 15.166 30.7796 15.2615 30.9905C15.3569 31.2014 15.4046 31.4378 15.4046 31.7008V34.4158H16.2121V35.4922H14.2178H14.2153ZM14.2153 33.3989C14.0722 33.3262 13.9315 33.2668 13.7959 33.2207C13.6113 33.1553 13.4103 33.1226 13.1918 33.1226C13.0009 33.1226 12.8427 33.1444 12.7158 33.1868C12.589 33.2292 12.4885 33.2874 12.4144 33.3601C12.2436 33.5044 12.1582 33.6862 12.1582 33.9031C12.1582 34.068 12.2223 34.2159 12.3529 34.348C12.4144 34.4074 12.4885 34.4534 12.5777 34.4861C12.6656 34.5189 12.7786 34.5358 12.9155 34.5358C13.1403 34.5358 13.3827 34.4728 13.6414 34.348C13.8599 34.2425 14.0508 34.1116 14.2141 33.9528V33.4001L14.2153 33.3989ZM21.2619 31.2669L18.7866 37.5854H17.6313L18.5618 35.0582L16.9556 31.2669H16.0451V30.1906H17.743L17.9992 30.8317L19.1546 33.5662L20.0551 31.2657H19.4309V30.1893H22.1009V31.2657H21.2619V31.2669ZM24.7495 35.6013C24.5586 35.6013 24.3865 35.577 24.2333 35.5273C24.0801 35.4776 23.9457 35.394 23.8289 35.2752C23.7134 35.1637 23.633 35.0328 23.589 34.8849C23.5451 34.737 23.5225 34.577 23.5225 34.4061V31.2669H22.6635V30.1906H23.5225V29.1542L24.7093 29.1251V30.1918H25.7215V31.2681H24.7093V34.3092C24.7093 34.4146 24.7193 34.4801 24.7394 34.5068H24.7909L25.7215 34.3589V35.4449L24.7495 35.6025V35.6013ZM30.0266 31.2475C29.6988 31.2475 29.4288 31.2838 29.2128 31.3566C28.998 31.4293 28.826 31.5214 28.6966 31.6329C28.5735 31.7384 28.4781 31.8632 28.4103 32.0075C28.3425 32.1517 28.3086 32.3626 28.3086 32.6389V34.4158H29.3007V35.4922H27.1218V31.2669H26.2012V30.1906H28.3086V30.7433C28.3362 30.7299 28.3977 30.6924 28.4932 30.6293C28.5886 30.5663 28.6841 30.513 28.7795 30.4669C29.0043 30.3615 29.2103 30.2887 29.3986 30.25C29.5858 30.21 29.7993 30.1942 30.0379 30.2003L30.549 30.21V31.2463H30.0278L30.0266 31.2475ZM33.6886 35.4922V35.137C33.4777 35.2619 33.2503 35.3637 33.008 35.4425C32.7656 35.5213 32.5182 35.5613 32.267 35.5613C31.7421 35.5613 31.305 35.394 30.9572 35.0582C30.6093 34.7358 30.436 34.3371 30.436 33.8631C30.436 33.3492 30.6407 32.925 31.0501 32.5893C31.2473 32.4183 31.4746 32.2947 31.7295 32.2196C31.9857 32.1444 32.267 32.1056 32.5734 32.1056C32.8121 32.1056 33.0645 32.1384 33.3307 32.2038C33.3847 32.2171 33.4438 32.2317 33.504 32.2487C33.5656 32.2656 33.6271 32.2862 33.6886 32.3129V31.7008C33.6886 31.5687 33.6698 31.4669 33.6321 31.3954C33.5945 31.3226 33.5455 31.2669 33.4839 31.2281C33.4023 31.176 33.3006 31.1348 33.1775 31.1045C33.0544 31.0754 32.905 31.0596 32.7279 31.0596C32.6388 31.0596 32.537 31.0705 32.4215 31.0948C32.3059 31.1178 32.1879 31.1469 32.0686 31.1832C31.9493 31.2196 31.8363 31.256 31.7308 31.2923C31.6253 31.3287 31.5349 31.3602 31.4595 31.3857L31.0915 30.5069C31.3301 30.4148 31.5348 30.3409 31.7056 30.2851C31.8764 30.2293 32.056 30.1784 32.2482 30.1324C32.4391 30.0863 32.6061 30.0633 32.7493 30.0633C33.0632 30.0633 33.3471 30.0948 33.6032 30.1566C33.8594 30.2196 34.0855 30.3166 34.2839 30.4475C34.4886 30.599 34.6381 30.7796 34.7335 30.9905C34.829 31.2014 34.8767 31.4378 34.8767 31.7008V34.4158H35.6842V35.4922H33.6899H33.6886ZM33.6886 33.3989C33.5455 33.3262 33.4048 33.2668 33.2692 33.2207C33.0858 33.1553 32.8836 33.1226 32.6664 33.1226C32.4755 33.1226 32.3173 33.1444 32.1904 33.1868C32.0636 33.2292 31.9631 33.2874 31.889 33.3601C31.7182 33.5044 31.6328 33.6862 31.6328 33.9031C31.6328 34.068 31.6969 34.2159 31.8275 34.348C31.889 34.4074 31.9631 34.4534 32.0523 34.4861C32.1402 34.5189 32.2532 34.5358 32.3901 34.5358C32.6149 34.5358 32.8573 34.4728 33.116 34.348C33.3345 34.2425 33.5254 34.1116 33.6886 33.9528V33.4001V33.3989ZM37.2578 29.273C37.1008 29.4112 36.9275 29.4803 36.7366 29.4803C36.5457 29.4803 36.3724 29.4112 36.2154 29.273C36.0723 29.1215 36.0007 28.9542 36.0007 28.77C36.0007 28.5664 36.0723 28.3955 36.2154 28.2561C36.3724 28.1179 36.5457 28.0488 36.7366 28.0488C36.9275 28.0488 37.1008 28.1179 37.2578 28.2561C37.401 28.4076 37.4725 28.5749 37.4725 28.7591C37.4725 28.9627 37.401 29.1336 37.2578 29.273ZM36.3071 35.4922L36.287 35.0473V31.2669H35.4381V30.1906H37.4738V34.4158H38.3027V35.4922H36.3084H36.3071ZM38.8954 35.4922V29.233H38.0163V28.1567H40.0822V34.4158H40.9513V35.4922H38.8954Z" fill="white"/>
<path d="M25.6199 40.7215V40.0358C25.6199 39.567 25.3602 39.3627 24.9039 39.3627C24.6643 39.3627 24.4549 39.4242 24.2956 39.5236V41.3456C24.4477 41.4071 24.6758 41.4323 24.891 41.4323C25.3473 41.4323 25.6199 41.2476 25.6199 40.7229V40.7215ZM24.98 38.7273C25.7777 38.7273 26.3659 39.2339 26.3659 40.0358V40.7145C26.3659 41.6534 25.7447 42.0733 24.9097 42.0733C24.4979 42.0733 24.0101 41.9865 23.6371 41.8508C23.5797 41.8326 23.561 41.8018 23.561 41.7458V37.6778C23.561 37.6162 23.5926 37.5854 23.6557 37.5854H24.1995C24.2626 37.5854 24.2942 37.6162 24.2942 37.6778V38.8631C24.4907 38.7833 24.7246 38.7273 24.9785 38.7273H24.98Z" fill="white"/>
<path d="M28.5744 38.7841C28.5744 38.7345 28.6001 38.7073 28.6514 38.7073H29.0936C29.145 38.7073 29.1707 38.7345 29.1707 38.7841V41.3599C29.1707 42.2015 28.8101 42.6341 28.0225 42.6341C27.5849 42.6341 27.2815 42.525 27.0131 42.2895C26.9723 42.2573 26.9723 42.2238 26.9979 42.1804L27.2196 41.847C27.2453 41.8036 27.2815 41.7925 27.3177 41.8197C27.5137 41.9623 27.7401 42.0714 28.0178 42.0714C28.3725 42.0714 28.5989 41.9077 28.5791 41.3599C28.4145 41.4144 28.2185 41.4578 28.0283 41.4578C27.4927 41.4578 26.9268 41.0971 26.9268 40.3422V38.7841C26.9268 38.7345 26.9571 38.7073 27.0038 38.7073H27.4519C27.4985 38.7073 27.5242 38.7345 27.5242 38.7841V40.3149C27.5242 40.7364 27.8019 40.8839 28.1111 40.8839C28.2862 40.8888 28.4612 40.8405 28.5744 40.7748V38.7841Z" fill="white"/>
<path d="M30.9484 41.511C30.8851 41.511 30.8535 41.4846 30.8535 41.4318V39.0083C30.8535 38.9663 30.8722 38.9339 30.924 38.9135C31.292 38.7816 31.7362 38.7073 32.1862 38.7073C33.0618 38.7073 33.6584 39.0454 33.6584 39.8921V41.4318C33.6584 41.4846 33.6268 41.511 33.5693 41.511H33.0172C32.9597 41.511 32.9223 41.4846 32.9223 41.4318V39.9029C32.9223 39.4052 32.6492 39.2577 32.1862 39.2577C31.9706 39.2577 31.7362 39.2841 31.5896 39.3165V41.433C31.5896 41.4858 31.558 41.5122 31.4947 41.5122H30.9498L30.9484 41.511Z" fill="white"/>
<path d="M35.351 39.3382C35.0478 39.3382 34.8204 39.5128 34.8204 39.9719V40.1339H35.8805V39.9719C35.8805 39.5185 35.6391 39.3382 35.351 39.3382ZM36.4625 40.6057C36.4625 40.662 36.4368 40.693 36.3855 40.693H34.8215V40.8676C34.8215 41.2464 35.0373 41.4394 35.3673 41.4394C35.6974 41.4394 35.9027 41.3084 36.0928 41.1535C36.1289 41.1225 36.1697 41.1282 36.1954 41.1718L36.4065 41.514C36.4368 41.5577 36.4321 41.607 36.3913 41.645C36.1184 41.9055 35.7837 42.0731 35.3463 42.0731C34.7655 42.0731 34.2197 41.6873 34.2197 40.862V39.9804C34.2197 39.0664 34.7854 38.7073 35.3522 38.7073C35.919 38.7073 36.4636 39.0678 36.4636 39.9804V40.6085L36.4625 40.6057Z" fill="white"/>
<path d="M37.8921 41.438C37.9325 41.438 38.0031 41.4326 38.0747 41.4258C38.1191 41.4258 38.1464 41.4557 38.1464 41.51V41.9645C38.1464 42.012 38.1282 42.0541 38.0838 42.0609C38.0081 42.0663 37.9153 42.0731 37.8477 42.0731C37.3846 42.0731 37.0244 41.7556 37.0244 40.9658V38.2304C37.0244 38.1761 37.0466 38.1462 37.091 38.1462H37.429C37.4643 38.1462 37.4916 38.1761 37.4956 38.2236L37.536 38.9414H38.0122C38.0525 38.9414 38.0788 38.9712 38.0788 39.0255V39.4624C38.0788 39.5167 38.0525 39.5465 38.0122 39.5465H37.541V40.917C37.541 41.2467 37.6651 41.438 37.8921 41.438Z" fill="white"/>
<path d="M39.8251 42.0731C39.4641 42.0731 39.0815 41.9552 38.7469 41.6701C38.6988 41.6392 38.6988 41.5957 38.7253 41.5466L38.9274 41.1436C38.9539 41.0874 38.9864 41.0818 39.0333 41.1183C39.2728 41.3233 39.5592 41.4342 39.8347 41.4342C40.1103 41.4342 40.3281 41.3106 40.3281 41.0747C40.3281 40.8276 40.073 40.7588 39.8347 40.7097C39.4364 40.6226 38.7626 40.4302 38.7626 39.6804C38.7626 38.9923 39.3197 38.7073 39.8877 38.7073C40.1897 38.7073 40.4978 38.7943 40.8118 38.9923C40.854 39.0162 40.8648 39.0667 40.8383 39.1159L40.6362 39.5119C40.6097 39.5554 40.5724 39.568 40.5303 39.5428C40.3341 39.4192 40.0947 39.3392 39.8564 39.3392C39.5435 39.3392 39.3739 39.4754 39.3739 39.679C39.3739 39.9331 39.6133 39.9949 39.9635 40.075C40.3991 40.1676 40.9514 40.3291 40.9514 41.041C40.9514 41.753 40.4629 42.0689 39.8263 42.0689L39.8251 42.0731Z" fill="white"/>
</svg>
