<svg width="19" height="19" viewBox="0 0 19 19" fill="none" xmlns="http://www.w3.org/2000/svg">
<path fill-rule="evenodd" clip-rule="evenodd" d="M0.065845 0.319631C0.21468 0.029339 0.567984 -0.0839455 0.854972 0.0666031L3.3601 1.38074C3.81291 1.61828 4.09713 2.09124 4.09713 2.60719V13.6184C4.09713 13.7274 4.18449 13.8158 4.29225 13.8158H15.4146C15.7379 13.8158 16 14.0809 16 14.4079C16 14.7349 15.7379 15 15.4146 15H4.29225C3.53792 15 2.92641 14.3815 2.92641 13.6184V2.60719C2.92641 2.53348 2.8858 2.46592 2.82112 2.43198L0.315993 1.11784C0.0290051 0.967295 -0.08299 0.609923 0.065845 0.319631Z" fill="black"/>
<path d="M16.5987 5H5.20497C4.76572 5 4.54609 5 4.38078 5.09621C4.2586 5.16731 4.15805 5.27374 4.09088 5.40308C4 5.57808 4 5.81057 4 6.27556V10.7244C4 11.1894 4 11.4219 4.09088 11.5969C4.15805 11.7263 4.2586 11.8327 4.38078 11.9038C4.54609 12 4.76572 12 5.20498 12H15.0488C15.364 12 15.5215 12 15.6556 11.9417C15.7553 11.8984 15.8448 11.8324 15.9177 11.7483C16.0158 11.6353 16.0703 11.4788 16.1793 11.1658L17.7293 6.71692C17.9388 6.11555 18.0435 5.81487 17.9829 5.57602C17.9385 5.40083 17.8376 5.2476 17.6977 5.14283C17.507 5 17.2042 5 16.5987 5Z" fill="black"/>
<path fill-rule="evenodd" clip-rule="evenodd" d="M4.83863 4C4.84588 4 4.85315 4 4.86044 4L16.958 4C17.2561 3.99998 17.5206 3.99997 17.7345 4.02012C17.9575 4.04113 18.2089 4.0896 18.4331 4.24485C18.6925 4.42444 18.8796 4.68712 18.962 4.98744C19.0332 5.24705 18.9927 5.49468 18.9357 5.70672C18.881 5.9101 18.7895 6.15297 18.6863 6.42669L17.0351 10.8089C17.0274 10.8293 17.0197 10.8498 17.012 10.8704C16.9215 11.1127 16.825 11.3713 16.6401 11.5683C16.5049 11.7124 16.339 11.8255 16.1542 11.8998C15.9014 12.0014 15.62 12.0006 15.3565 11.9999C15.334 11.9998 15.3117 11.9997 15.2895 11.9997L4.83863 11.9997C4.6247 11.9998 4.42824 11.9998 4.26436 11.9858C4.0874 11.9707 3.89427 11.9361 3.70598 11.8348C3.47945 11.7129 3.29304 11.5305 3.1685 11.3088C3.06499 11.1245 3.02965 10.9355 3.01424 10.7623C2.99997 10.6019 2.99998 10.4096 3 10.2002L3 5.8209C3 5.81376 3 5.80665 3 5.79955C2.99998 5.59017 2.99997 5.39789 3.01424 5.23749C3.02965 5.06429 3.06499 4.87526 3.1685 4.69097C3.29304 4.46926 3.47945 4.28681 3.70598 4.16492C3.89427 4.06361 4.0874 4.02902 4.26436 4.01394C4.42824 3.99997 4.6247 3.99999 4.83863 4ZM4.26618 5.16764C4.27357 5.16523 4.30073 5.15798 4.36564 5.15245C4.47268 5.14333 4.61745 5.14282 4.86044 5.14282H16.9316C17.2642 5.14282 17.4716 5.14345 17.6226 5.15768C17.7147 5.16635 17.7534 5.17792 17.7643 5.18178C17.7967 5.20591 17.8205 5.23936 17.8324 5.27742C17.8323 5.28874 17.83 5.32833 17.8065 5.41584C17.7679 5.5595 17.6967 5.75009 17.5816 6.05552L15.9395 10.4135C15.8789 10.5743 15.8437 10.6668 15.8125 10.7342C15.7934 10.7755 15.7827 10.7916 15.7796 10.7958C15.7606 10.816 15.7373 10.8318 15.7114 10.8424C15.7063 10.8438 15.6871 10.848 15.641 10.8513C15.5656 10.8566 15.4647 10.8569 15.2895 10.8569H4.86044C4.61745 10.8569 4.47268 10.8564 4.36564 10.8473C4.30073 10.8418 4.27358 10.8345 4.26619 10.8321C4.23563 10.8151 4.21034 10.7904 4.193 10.7605C4.19054 10.7532 4.18313 10.7267 4.17748 10.6631C4.16816 10.5584 4.16764 10.4167 4.16764 10.1788V5.8209C4.16764 5.58308 4.16816 5.44138 4.17748 5.33662C4.18313 5.27308 4.19054 5.2465 4.193 5.23927C4.21034 5.20937 4.23563 5.18462 4.26618 5.16764Z" fill="black"/>
<path fill-rule="evenodd" clip-rule="evenodd" d="M6.5 18.1C6.83137 18.1 7.1 17.8314 7.1 17.5C7.1 17.1686 6.83137 16.9 6.5 16.9C6.16863 16.9 5.9 17.1686 5.9 17.5C5.9 17.8314 6.16863 18.1 6.5 18.1ZM6.5 19C7.32843 19 8 18.3284 8 17.5C8 16.6716 7.32843 16 6.5 16C5.67157 16 5 16.6716 5 17.5C5 18.3284 5.67157 19 6.5 19Z" fill="black"/>
<path fill-rule="evenodd" clip-rule="evenodd" d="M12.5 18.1C12.8314 18.1 13.1 17.8314 13.1 17.5C13.1 17.1686 12.8314 16.9 12.5 16.9C12.1686 16.9 11.9 17.1686 11.9 17.5C11.9 17.8314 12.1686 18.1 12.5 18.1ZM12.5 19C13.3284 19 14 18.3284 14 17.5C14 16.6716 13.3284 16 12.5 16C11.6716 16 11 16.6716 11 17.5C11 18.3284 11.6716 19 12.5 19Z" fill="black"/>
</svg>
